<?xml version="1.0" encoding="UTF-8"?>
<svg class="search" width="24" height="24" viewBox="0 0 24 24" fill="none" xmlns="http://www.w3.org/2000/svg">
    <g clip-path="url(#clip0_7_7451)">
        <path d="M16.0484 15.0738L19 18.0253L18.0253 19L15.0738 16.0484C14.0125 16.8975 12.6666 17.4054 11.2027 17.4054C7.77881 17.4054 5 14.6266 5 11.2027C5 7.77881 7.77881 5 11.2027 5C14.6266 5 17.4054 7.77881 17.4054 11.2027C17.4054 12.6666 16.8975 14.0125 16.0484 15.0738ZM14.6657 14.5624C15.5084 13.6939 16.027 12.5091 16.027 11.2027C16.027 8.53727 13.8682 6.37838 11.2027 6.37838C8.53727 6.37838 6.37838 8.53727 6.37838 11.2027C6.37838 13.8682 8.53727 16.027 11.2027 16.027C12.5091 16.027 13.6939 15.5084 14.5624 14.6657L14.6657 14.5624Z" fill="black"/>
    </g>
    <defs>
        <clipPath id="clip0_7_7451">
            <rect width="24" height="24" fill="white"/>
        </clipPath>
    </defs>
</svg>