<svg width="199" height="48" viewBox="0 0 199 48" fill="none" xmlns="http://www.w3.org/2000/svg">
<g clip-path="url(#clip0_7_6977)">
<path d="M49.3946 23.0424C44.8569 5.68248 35.9271 -6.05733 19.9618 3.33035C4.01734 12.718 -8.20122 23.8334 6.8274 38.2167C21.856 52.6209 58.9488 53.8698 49.3946 23.0424Z" fill="url(#paint0_linear_7_6977)"/>
<path d="M27.3302 3.39291C26.0813 3.39291 22.626 8.36776 22.626 14.0295C22.626 19.0252 23.5418 22.7719 26.2062 23.6878C28.0796 20.0868 30.5774 15.216 28.1004 8.7008C28.1004 8.7008 32.8255 15.9029 27.351 23.8751C30.5358 23.8335 33.1169 19.275 33.1169 13.634C33.1169 7.99308 29.0579 3.22639 27.3302 3.39291Z" fill="white"/>
<path d="M26.3938 46.1269C27.6427 46.1269 31.098 41.381 31.098 35.969C31.098 31.2024 30.1821 27.6221 27.5178 26.7479C25.6444 30.1824 23.1466 34.8242 25.6236 41.048C25.6236 41.048 20.8985 34.1789 26.3729 26.5605C23.1882 26.6022 20.6279 30.9526 20.6279 36.3437C20.6279 41.7349 24.6869 46.2726 26.4146 46.1269H26.3938Z" fill="white"/>
<path d="M47.9793 26.5398C47.9793 25.4574 43.6497 22.46 38.7165 22.46C34.3661 22.46 31.0981 23.2509 30.3071 25.5823C33.4294 27.2058 37.6758 29.3914 43.3583 27.2267C43.3583 27.2267 37.0929 31.3273 30.1406 26.5814C30.1823 29.3498 34.158 31.5979 39.0496 31.5979C43.9411 31.5979 48.1042 28.0593 47.9793 26.5606V26.5398Z" fill="white"/>
<path d="M5.82851 24.1243C5.82851 25.1859 10.0748 28.1208 14.8831 28.1208C19.1295 28.1208 22.335 27.3299 23.1052 25.061C20.0453 23.4582 15.9031 21.3559 10.3662 23.4582C10.3662 23.4582 16.4859 19.4409 23.2717 24.1035C23.2509 21.3975 19.3584 19.2119 14.5501 19.2119C9.74178 19.2119 5.70361 22.6672 5.82851 24.1451V24.1243Z" fill="white"/>
<path d="M117.71 13.2591L117.523 19.9616L116.878 32.43L116.586 36.0102H120.208C121.166 36.0102 122.248 36.0102 123.435 36.0102L123.56 30.9729L124.163 18.3588L124.538 13.2383C123.31 13.2591 122.186 13.2799 121.187 13.2799C120.416 13.2799 119.251 13.2799 117.69 13.2383L117.71 13.2591Z" fill="#005E66"/>
<path d="M107.136 13.2591L106.949 19.9616L106.304 32.43L106.012 36.0102H109.634C110.592 36.0102 111.674 36.0102 112.86 36.0102L112.985 30.9729L113.589 18.3588L113.964 13.2383C112.736 13.2591 111.612 13.2799 110.612 13.2799C109.842 13.2799 108.677 13.2799 107.115 13.2383L107.136 13.2591Z" fill="#005E66"/>
<path d="M176.597 16.694C177.471 16.694 178.47 16.9022 179.573 17.2977C179.469 16.132 179.386 14.6541 179.365 12.8848C178.324 12.6142 177.429 12.4269 176.68 12.3436C175.972 12.2604 175.327 12.2188 174.703 12.2188H174.474C173.808 12.2188 173.162 12.2812 172.538 12.3853C171.893 12.4893 171.31 12.7183 170.789 13.0305C170.269 13.3428 169.873 13.7174 169.582 14.1129C169.291 14.5292 169.103 15.008 168.999 15.5908C168.895 16.1736 168.833 16.9646 168.833 17.9846C168.833 18.3176 168.833 18.6923 168.833 19.1294H166.46C166.46 19.629 166.418 20.4408 166.356 21.5648C166.293 22.6888 166.252 23.4174 166.21 23.7712H168.25C167.958 29.8076 167.688 33.8874 167.48 36.0106C168.749 35.9898 169.853 35.969 170.81 35.969C171.768 35.969 172.892 35.969 174.224 36.0106L174.765 23.7712H178.241C178.324 21.9603 178.429 20.42 178.512 19.1294H174.682V18.6299C174.682 17.8805 174.827 17.3809 175.181 17.0895C175.514 16.8189 175.993 16.6732 176.597 16.6732V16.694Z" fill="#005E66"/>
<path d="M73.79 18.8795C74.9973 18.2759 76.3503 17.9845 77.849 17.9845C78.5359 17.9845 79.2853 18.0469 80.0971 18.151C80.9089 18.2551 81.9496 18.4632 83.261 18.7754L83.1361 16.8812C83.0945 16.1527 83.0528 15.4658 83.032 14.8622L82.9904 13.4675C80.5758 13.0512 78.5359 12.8223 76.8915 12.8223C75.1014 12.8223 73.3737 13.0512 71.6877 13.5092C70.0017 13.9671 68.4613 14.7373 67.0667 15.8197C65.6721 16.9021 64.5897 18.2342 63.8403 19.837C63.091 21.4398 62.7163 23.2507 62.7163 25.2698C62.7163 26.9975 62.9869 28.5586 63.5489 29.9324C64.1109 31.327 65.0268 32.5343 66.3174 33.5543C67.6079 34.5742 69.0442 35.3236 70.5845 35.7815C72.1248 36.2394 73.8109 36.4684 75.6218 36.4684H75.705C77.5576 36.4684 79.6391 36.2811 81.9912 35.9272C82.0537 35.2819 82.1786 34.3869 82.3659 33.2004C82.5533 32.0348 82.7198 31.1189 82.8447 30.4736C81.4501 30.8483 80.2844 31.0981 79.3477 31.223C78.411 31.3478 77.5576 31.4103 76.7666 31.4103C75.3304 31.4103 74.1023 31.1605 73.1239 30.6609C72.1456 30.1614 71.3546 29.4745 70.7718 28.5586C70.189 27.6427 69.8976 26.5603 69.8976 25.2906C69.8976 23.896 70.2514 22.6263 70.9383 21.4814C71.6252 20.3366 72.5619 19.4623 73.7692 18.8587L73.79 18.8795Z" fill="#005E66"/>
<path d="M101.641 20.5448C100.85 19.8163 99.8715 19.2959 98.7059 19.0045C97.561 18.7131 96.3537 18.5674 95.084 18.5674C93.8143 18.5674 92.6694 18.7339 91.5038 19.0461C90.3381 19.3792 89.2974 19.9204 88.4023 20.6905C87.5073 21.4607 86.7787 22.5223 86.2167 23.8753C85.6547 25.2283 85.3633 26.6229 85.3633 28.0591C85.3633 29.0791 85.509 30.0574 85.7796 31.0149C86.071 31.9724 86.4873 32.805 87.0285 33.4919C87.5697 34.1788 88.2566 34.7617 89.0476 35.2404C89.8386 35.7192 90.8169 36.0314 91.9201 36.2187C93.0233 36.4061 94.2098 36.4893 95.5211 36.4893H95.6668C96.5411 36.4893 97.3945 36.4477 98.2479 36.3644C99.1222 36.2812 100.205 36.1147 101.495 35.8649C101.911 33.3046 102.182 31.7018 102.328 31.0357C100.954 31.452 99.7883 31.7434 98.8516 31.91C97.9149 32.0765 97.0823 32.1597 96.3329 32.1597C95.1048 32.1597 94.0433 31.8683 93.1898 31.3063C92.3364 30.7443 91.8993 29.8701 91.8993 28.6628C91.8993 28.5171 91.8993 28.3506 91.8993 28.184H103.597C103.743 27.3931 103.806 26.6853 103.806 26.0401C103.806 24.9785 103.639 23.9794 103.306 23.0635C102.973 22.1476 102.39 21.315 101.599 20.5865L101.641 20.5448ZM97.5818 25.6029H92.0866C92.1699 25.1658 92.2531 24.812 92.3156 24.5622C92.3988 24.3124 92.5237 24.0626 92.6903 23.792C92.8568 23.5214 93.0649 23.2924 93.3147 23.0843C93.5645 22.8761 93.8351 22.7304 94.1473 22.6264C94.4596 22.5223 94.7718 22.4598 95.1048 22.4598C95.5836 22.4598 96.0207 22.5639 96.3954 22.7513C96.7701 22.9386 97.0823 23.2508 97.2696 23.6463C97.4778 24.0626 97.5818 24.5414 97.5818 25.1242C97.5818 25.2491 97.5818 25.4156 97.5818 25.6029Z" fill="#005E66"/>
<path d="M142.522 27.6847C142.355 27.3516 142.126 26.977 141.835 26.5815C141.544 26.186 141.169 25.7697 140.773 25.3534C140.357 24.9371 139.982 24.5832 139.629 24.3126L138.421 23.3551C137.568 22.689 136.943 22.1894 136.527 21.8356C136.132 21.5025 135.799 21.1903 135.57 20.8989C135.32 20.6075 135.153 20.3785 135.07 20.1495C134.987 19.9414 134.945 19.7124 134.945 19.5043C134.945 19.0255 135.237 18.63 135.799 18.297C136.381 17.9639 137.089 17.8182 137.963 17.8182C138.567 17.8182 139.296 17.9015 140.149 18.068C141.002 18.2345 141.939 18.526 142.959 18.9214C142.793 17.3187 142.688 16.1946 142.647 15.5494C142.605 14.9041 142.564 14.1964 142.522 13.447C140.316 13.0099 138.255 12.8018 136.381 12.8018C135.424 12.8018 134.487 12.885 133.592 13.0307C132.697 13.1764 131.844 13.4678 131.053 13.8842C130.262 14.3005 129.637 14.7792 129.159 15.362C128.68 15.924 128.326 16.5277 128.076 17.1938C127.847 17.8391 127.722 18.5051 127.722 19.192C127.722 19.7541 127.806 20.2953 127.951 20.7948C128.097 21.2944 128.347 21.794 128.659 22.2935C128.992 22.7931 129.45 23.3135 130.033 23.8755C130.324 24.1461 130.824 24.604 131.573 25.2285L134.716 27.9553C135.008 28.2051 135.237 28.4548 135.382 28.663C135.528 28.8711 135.653 29.0793 135.695 29.2458C135.757 29.4123 135.778 29.5997 135.778 29.787C135.778 30.349 135.486 30.7653 134.924 31.0359C134.342 31.3273 133.571 31.4522 132.614 31.4522C131.885 31.4522 131.011 31.3482 130.054 31.1192C129.075 30.911 127.972 30.5155 126.723 29.9535C126.91 31.369 127.077 33.284 127.223 35.6361C129.97 36.1565 132.239 36.4271 134.05 36.4271H134.113C135.257 36.4271 136.361 36.3022 137.381 36.0732C138.421 35.8443 139.4 35.428 140.274 34.8451C141.148 34.2623 141.835 33.5129 142.314 32.6179C142.793 31.702 143.042 30.7653 143.042 29.7662C143.042 29.3707 143.001 29.0168 142.917 28.663C142.834 28.3299 142.73 27.9969 142.564 27.6639L142.522 27.6847Z" fill="#005E66"/>
<path d="M160.194 19.0045C159.112 18.7131 157.905 18.5674 156.593 18.5674C154.283 18.5674 151.535 18.9212 148.33 19.6081C148.205 20.5032 148.121 21.1485 148.059 21.5648C147.996 21.9811 147.872 22.7513 147.663 23.8336C150.474 22.7513 152.846 22.2101 154.761 22.2101C155.448 22.2101 155.969 22.3349 156.323 22.5431C156.676 22.7721 156.864 23.1051 156.864 23.5214C156.864 23.6671 156.843 23.8336 156.781 23.9585C156.718 24.1042 156.635 24.2291 156.51 24.354C156.385 24.4789 156.219 24.583 156.01 24.6871C155.802 24.7911 155.469 24.8952 154.97 25.0201C154.491 25.145 153.95 25.2699 153.367 25.374C151.972 25.6446 150.827 25.9152 149.932 26.2274C149.016 26.5188 148.309 26.8519 147.788 27.1849C147.268 27.5179 146.81 27.9343 146.415 28.413C146.019 28.8918 145.748 29.3705 145.561 29.8909C145.374 30.3905 145.291 30.9108 145.291 31.4312C145.291 32.2846 145.54 33.1381 146.04 33.9915C146.539 34.8449 147.247 35.4694 148.163 35.8441C149.058 36.2187 150.182 36.4061 151.535 36.4269H151.639C152.493 36.4269 153.367 36.3436 154.324 36.1979C154.761 34.5535 155.157 33.3046 155.469 32.4512C155.011 32.5969 154.637 32.7009 154.366 32.7426C154.095 32.7842 153.846 32.805 153.617 32.805C152.971 32.805 152.493 32.6801 152.18 32.4095C151.889 32.1389 151.722 31.8267 151.722 31.4312C151.722 31.1814 151.785 30.9733 151.889 30.7651C151.993 30.557 152.18 30.3696 152.43 30.1823C152.68 29.995 152.971 29.8284 153.304 29.7244C153.637 29.5995 154.116 29.4538 154.72 29.2664C155.323 29.0791 155.74 28.9542 155.969 28.8709C156.219 28.7877 156.531 28.642 156.968 28.4338C156.781 32.2638 156.614 34.7825 156.468 36.0106C157.655 35.9898 158.758 35.9689 159.799 35.9689C160.84 35.9689 161.964 35.9689 163.046 36.0106C163.129 32.472 163.254 29.6203 163.421 27.4347C163.587 25.2491 163.67 23.8545 163.67 23.23C163.67 22.0019 163.358 21.0652 162.755 20.4199C162.151 19.7747 161.297 19.2959 160.194 18.9837V19.0045Z" fill="#005E66"/>
<path d="M197.828 23.0424C197.495 22.1265 196.912 21.2939 196.121 20.5653C195.33 19.8368 194.352 19.3164 193.186 19.025C192.041 18.7336 190.834 18.5879 189.564 18.5879C188.295 18.5879 187.15 18.7544 185.984 19.0666C184.819 19.3997 183.778 19.9409 182.883 20.711C181.988 21.4812 181.259 22.5428 180.697 23.8958C180.135 25.2488 179.844 26.6434 179.844 28.0797C179.844 29.0996 179.989 30.0779 180.26 31.0354C180.551 31.9929 180.968 32.8255 181.509 33.5124C182.05 34.1993 182.737 34.7822 183.528 35.2609C184.34 35.7189 185.297 36.0519 186.401 36.2392C187.504 36.4266 188.69 36.5098 190.002 36.5098H190.147C191.022 36.5098 191.875 36.4682 192.728 36.3849C193.603 36.3017 194.685 36.1352 195.976 35.8854C196.392 33.3251 196.662 31.7223 196.808 31.0562C195.434 31.4725 194.269 31.764 193.332 31.9305C192.395 32.097 191.563 32.1803 190.813 32.1803C189.585 32.1803 188.545 31.8888 187.67 31.3268C186.817 30.7648 186.38 29.8906 186.38 28.6833C186.38 28.5376 186.38 28.3711 186.38 28.2045H198.078C198.224 27.4136 198.286 26.7267 198.286 26.1022V26.0189C198.286 24.9782 198.12 23.9999 197.787 23.084L197.828 23.0424ZM192.062 25.6026H186.546C186.63 25.1655 186.692 24.8117 186.775 24.5619C186.858 24.3121 186.983 24.0623 187.15 23.7917C187.316 23.5211 187.525 23.2921 187.774 23.084C188.024 22.8758 188.295 22.7301 188.607 22.6261C188.919 22.522 189.231 22.4595 189.564 22.4595C190.043 22.4595 190.48 22.5636 190.855 22.7509C191.23 22.9383 191.542 23.2505 191.729 23.646C191.937 24.0623 192.041 24.5411 192.041 25.1239C192.041 25.2488 192.041 25.4153 192.041 25.6026H192.062Z" fill="#005E66"/>
</g>
<defs>
<linearGradient id="paint0_linear_7_6977" x1="0.66608" y1="7.65993" x2="61.6756" y2="44.3156" gradientUnits="userSpaceOnUse">
<stop stop-color="#F7C800"/>
<stop offset="0.14" stop-color="#F5B300"/>
<stop offset="0.31" stop-color="#F19B0D"/>
<stop offset="1" stop-color="#E61F1F"/>
</linearGradient>
<clipPath id="clip0_7_6977">
<rect width="198.349" height="48" fill="white"/>
</clipPath>
</defs>
</svg>
