<svg width="199" height="48" viewBox="0 0 199 48" fill="none" xmlns="http://www.w3.org/2000/svg">
<g clip-path="url(#clip0_7_7144)">
<path d="M49.3946 23.0425C44.8569 5.6826 35.9271 -6.05721 19.9618 3.33048C4.01734 12.7182 -8.20122 23.8335 6.8274 38.2169C21.856 52.621 58.9488 53.8699 49.3946 23.0425Z" fill="url(#paint0_linear_7_7144)"/>
<path d="M27.3302 3.39291C26.0813 3.39291 22.626 8.36776 22.626 14.0295C22.626 19.0252 23.5418 22.7719 26.2062 23.6878C28.0796 20.0868 30.5774 15.216 28.1004 8.7008C28.1004 8.7008 32.8255 15.9029 27.351 23.8751C30.5358 23.8335 33.1169 19.275 33.1169 13.634C33.1169 7.99308 29.0579 3.22639 27.3302 3.39291Z" fill="white"/>
<path d="M26.3938 46.1267C27.6427 46.1267 31.098 41.3808 31.098 35.9688C31.098 31.2021 30.1821 27.6219 27.5178 26.7476C25.6444 30.1822 23.1466 34.824 25.6236 41.0477C25.6236 41.0477 20.8985 34.1787 26.3729 26.5603C23.1882 26.6019 20.6279 30.9523 20.6279 36.3435C20.6279 41.7346 24.6869 46.2724 26.4146 46.1267H26.3938Z" fill="white"/>
<path d="M47.9793 26.5394C47.9793 25.457 43.6497 22.4596 38.7165 22.4596C34.3661 22.4596 31.0981 23.2506 30.3071 25.5819C33.4294 27.2055 37.6758 29.3911 43.3583 27.2263C43.3583 27.2263 37.0929 31.3269 30.1406 26.581C30.1823 29.3494 34.158 31.5975 39.0496 31.5975C43.9411 31.5975 48.1042 28.0589 47.9793 26.5602V26.5394Z" fill="white"/>
<path d="M5.82851 24.1249C5.82851 25.1865 10.0748 28.1215 14.8831 28.1215C19.1295 28.1215 22.335 27.3305 23.1052 25.0616C20.0453 23.4588 15.9031 21.3565 10.3662 23.4588C10.3662 23.4588 16.4859 19.4415 23.2717 24.1041C23.2509 21.3981 19.3584 19.2125 14.5501 19.2125C9.74178 19.2125 5.70361 22.6679 5.82851 24.1457V24.1249Z" fill="white"/>
<path d="M117.71 13.2592L117.523 19.9617L116.878 32.4301L116.586 36.0103H120.208C121.166 36.0103 122.248 36.0103 123.435 36.0103L123.56 30.973L124.163 18.359L124.538 13.2384C123.31 13.2592 122.186 13.28 121.187 13.28C120.416 13.28 119.251 13.28 117.69 13.2384L117.71 13.2592Z" fill="white"/>
<path d="M107.136 13.2592L106.949 19.9617L106.304 32.4301L106.012 36.0103H109.634C110.592 36.0103 111.674 36.0103 112.86 36.0103L112.985 30.973L113.589 18.359L113.964 13.2384C112.736 13.2592 111.612 13.28 110.612 13.28C109.842 13.28 108.677 13.28 107.115 13.2384L107.136 13.2592Z" fill="white"/>
<path d="M176.597 16.6938C177.471 16.6938 178.47 16.9019 179.573 17.2974C179.469 16.1318 179.386 14.6539 179.365 12.8846C178.324 12.614 177.429 12.4267 176.68 12.3434C175.972 12.2601 175.327 12.2185 174.703 12.2185H174.474C173.808 12.2185 173.162 12.281 172.538 12.385C171.893 12.4891 171.31 12.7181 170.789 13.0303C170.269 13.3425 169.873 13.7172 169.582 14.1127C169.291 14.529 169.103 15.0078 168.999 15.5906C168.895 16.1734 168.833 16.9644 168.833 17.9843C168.833 18.3174 168.833 18.6921 168.833 19.1292H166.46C166.46 19.6287 166.418 20.4405 166.356 21.5646C166.293 22.6886 166.252 23.4171 166.21 23.771H168.25C167.958 29.8074 167.688 33.8872 167.48 36.0104C168.749 35.9895 169.853 35.9687 170.81 35.9687C171.768 35.9687 172.892 35.9687 174.224 36.0104L174.765 23.771H178.241C178.324 21.9601 178.429 20.4197 178.512 19.1292H174.682V18.6296C174.682 17.8803 174.827 17.3807 175.181 17.0893C175.514 16.8187 175.993 16.673 176.597 16.673V16.6938Z" fill="white"/>
<path d="M73.79 18.8794C74.9973 18.2757 76.3503 17.9843 77.849 17.9843C78.5359 17.9843 79.2853 18.0468 80.0971 18.1509C80.9089 18.2549 81.9496 18.4631 83.261 18.7753L83.1361 16.8811C83.0945 16.1526 83.0528 15.4657 83.032 14.862L82.9904 13.4674C80.5758 13.0511 78.5359 12.8221 76.8915 12.8221C75.1014 12.8221 73.3737 13.0511 71.6877 13.509C70.0017 13.967 68.4613 14.7371 67.0667 15.8195C65.6721 16.9019 64.5897 18.2341 63.8403 19.8369C63.091 21.4397 62.7163 23.2506 62.7163 25.2697C62.7163 26.9973 62.9869 28.5585 63.5489 29.9323C64.1109 31.3269 65.0268 32.5342 66.3174 33.5541C67.6079 34.5741 69.0442 35.3234 70.5845 35.7814C72.1248 36.2393 73.8109 36.4683 75.6218 36.4683H75.705C77.5576 36.4683 79.6391 36.2809 81.9912 35.9271C82.0537 35.2818 82.1786 34.3868 82.3659 33.2003C82.5533 32.0346 82.7198 31.1188 82.8447 30.4735C81.45 30.8482 80.2844 31.0979 79.3477 31.2228C78.411 31.3477 77.5576 31.4102 76.7666 31.4102C75.3304 31.4102 74.1023 31.1604 73.1239 30.6608C72.1456 30.1613 71.3546 29.4744 70.7718 28.5585C70.189 27.6426 69.8976 26.5602 69.8976 25.2905C69.8976 23.8959 70.2514 22.6261 70.9383 21.4813C71.6252 20.3365 72.5619 19.4622 73.7692 18.8586L73.79 18.8794Z" fill="white"/>
<path d="M101.641 20.5446C100.85 19.8161 99.8715 19.2957 98.7059 19.0043C97.561 18.7128 96.3537 18.5671 95.084 18.5671C93.8143 18.5671 92.6694 18.7337 91.5038 19.0459C90.3381 19.3789 89.2974 19.9201 88.4023 20.6903C87.5073 21.4605 86.7787 22.522 86.2167 23.875C85.6547 25.228 85.3633 26.6226 85.3633 28.0589C85.3633 29.0788 85.509 30.0572 85.7796 31.0147C86.071 31.9722 86.4873 32.8048 87.0285 33.4917C87.5697 34.1786 88.2566 34.7614 89.0476 35.2402C89.8386 35.7189 90.8169 36.0311 91.9201 36.2185C93.0233 36.4058 94.2098 36.4891 95.5211 36.4891H95.6668C96.5411 36.4891 97.3945 36.4475 98.2479 36.3642C99.1222 36.2809 100.205 36.1144 101.495 35.8646C101.911 33.3043 102.182 31.7016 102.328 31.0355C100.954 31.4518 99.7883 31.7432 98.8516 31.9097C97.9149 32.0762 97.0823 32.1595 96.3329 32.1595C95.1048 32.1595 94.0433 31.8681 93.1898 31.3061C92.3364 30.7441 91.8993 29.8698 91.8993 28.6625C91.8993 28.5168 91.8993 28.3503 91.8993 28.1838H103.597C103.743 27.3928 103.806 26.6851 103.806 26.0398C103.806 24.9782 103.639 23.9791 103.306 23.0632C102.973 22.1474 102.39 21.3148 101.599 20.5862L101.641 20.5446ZM97.5818 25.6027H92.0866C92.1699 25.1656 92.2531 24.8117 92.3156 24.5619C92.3988 24.3122 92.5237 24.0624 92.6903 23.7918C92.8568 23.5212 93.0649 23.2922 93.3147 23.0841C93.5645 22.8759 93.8351 22.7302 94.1473 22.6261C94.4596 22.522 94.7718 22.4596 95.1048 22.4596C95.5836 22.4596 96.0207 22.5637 96.3954 22.751C96.7701 22.9383 97.0823 23.2506 97.2696 23.6461C97.4778 24.0624 97.5818 24.5411 97.5818 25.1239C97.5818 25.2488 97.5818 25.4154 97.5818 25.6027Z" fill="white"/>
<path d="M142.522 27.6843C142.355 27.3513 142.126 26.9766 141.835 26.5811C141.544 26.1856 141.169 25.7693 140.773 25.353C140.357 24.9367 139.982 24.5828 139.629 24.3122L138.421 23.3547C137.568 22.6886 136.943 22.1891 136.527 21.8352C136.132 21.5022 135.799 21.1899 135.57 20.8985C135.32 20.6071 135.153 20.3781 135.07 20.1492C134.987 19.941 134.945 19.7121 134.945 19.5039C134.945 19.0252 135.237 18.6297 135.799 18.2966C136.381 17.9636 137.089 17.8179 137.963 17.8179C138.567 17.8179 139.296 17.9011 140.149 18.0677C141.002 18.2342 141.939 18.5256 142.959 18.9211C142.793 17.3183 142.688 16.1943 142.647 15.549C142.605 14.9037 142.564 14.196 142.522 13.4467C140.316 13.0095 138.255 12.8014 136.381 12.8014C135.424 12.8014 134.487 12.8847 133.592 13.0304C132.697 13.1761 131.844 13.4675 131.053 13.8838C130.262 14.3001 129.637 14.7788 129.159 15.3617C128.68 15.9237 128.326 16.5273 128.076 17.1934C127.847 17.8387 127.722 18.5048 127.722 19.1917C127.722 19.7537 127.806 20.2949 127.951 20.7945C128.097 21.294 128.347 21.7936 128.659 22.2932C128.992 22.7927 129.45 23.3131 130.033 23.8751C130.324 24.1457 130.824 24.6036 131.573 25.2281L134.716 27.9549C135.008 28.2047 135.237 28.4545 135.382 28.6626C135.528 28.8708 135.653 29.0789 135.695 29.2454C135.757 29.412 135.778 29.5993 135.778 29.7866C135.778 30.3487 135.486 30.765 134.924 31.0356C134.342 31.327 133.571 31.4519 132.614 31.4519C131.885 31.4519 131.011 31.3478 130.054 31.1188C129.075 30.9107 127.972 30.5152 126.723 29.9532C126.91 31.3686 127.077 33.2836 127.223 35.6357C129.97 36.1561 132.239 36.4267 134.05 36.4267H134.113C135.257 36.4267 136.361 36.3018 137.381 36.0729C138.421 35.8439 139.4 35.4276 140.274 34.8448C141.148 34.2619 141.835 33.5126 142.314 32.6175C142.793 31.7017 143.042 30.765 143.042 29.7658C143.042 29.3703 143.001 29.0165 142.917 28.6626C142.834 28.3296 142.73 27.9965 142.564 27.6635L142.522 27.6843Z" fill="white"/>
<path d="M160.194 19.0043C159.112 18.7128 157.905 18.5671 156.593 18.5671C154.283 18.5671 151.535 18.921 148.33 19.6079C148.205 20.503 148.121 21.1482 148.059 21.5645C147.996 21.9808 147.872 22.751 147.663 23.8334C150.474 22.751 152.846 22.2098 154.761 22.2098C155.448 22.2098 155.969 22.3347 156.323 22.5429C156.676 22.7718 156.864 23.1049 156.864 23.5212C156.864 23.6669 156.843 23.8334 156.781 23.9583C156.718 24.104 156.635 24.2289 156.51 24.3538C156.385 24.4787 156.219 24.5828 156.01 24.6868C155.802 24.7909 155.469 24.895 154.97 25.0199C154.491 25.1448 153.95 25.2697 153.367 25.3737C151.972 25.6443 150.827 25.9149 149.932 26.2272C149.016 26.5186 148.309 26.8516 147.788 27.1847C147.268 27.5177 146.81 27.934 146.415 28.4128C146.019 28.8915 145.748 29.3703 145.561 29.8906C145.374 30.3902 145.291 30.9106 145.291 31.431C145.291 32.2844 145.54 33.1378 146.04 33.9913C146.539 34.8447 147.247 35.4691 148.163 35.8438C149.058 36.2185 150.182 36.4058 151.535 36.4266H151.639C152.493 36.4266 153.367 36.3434 154.324 36.1977C154.761 34.5533 155.157 33.3043 155.469 32.4509C155.011 32.5966 154.637 32.7007 154.366 32.7423C154.095 32.784 153.846 32.8048 153.617 32.8048C152.971 32.8048 152.493 32.6799 152.18 32.4093C151.889 32.1387 151.722 31.8265 151.722 31.431C151.722 31.1812 151.785 30.973 151.889 30.7649C151.993 30.5567 152.18 30.3694 152.43 30.1821C152.68 29.9947 152.971 29.8282 153.304 29.7241C153.637 29.5992 154.116 29.4535 154.72 29.2662C155.323 29.0788 155.74 28.954 155.969 28.8707C156.219 28.7874 156.531 28.6417 156.968 28.4336C156.781 32.2636 156.614 34.7822 156.468 36.0103C157.655 35.9895 158.758 35.9687 159.799 35.9687C160.84 35.9687 161.964 35.9687 163.046 36.0103C163.129 32.4717 163.254 29.62 163.421 27.4344C163.587 25.2488 163.67 23.8542 163.67 23.2298C163.67 22.0017 163.358 21.065 162.755 20.4197C162.151 19.7744 161.297 19.2957 160.194 18.9834V19.0043Z" fill="white"/>
<path d="M197.828 23.0425C197.495 22.1266 196.912 21.294 196.121 20.5655C195.33 19.8369 194.352 19.3165 193.186 19.0251C192.041 18.7337 190.834 18.588 189.564 18.588C188.295 18.588 187.15 18.7545 185.984 19.0668C184.819 19.3998 183.778 19.941 182.883 20.7112C181.988 21.4813 181.259 22.5429 180.697 23.8959C180.135 25.2489 179.844 26.6435 179.844 28.0798C179.844 29.0997 179.989 30.078 180.26 31.0355C180.551 31.993 180.968 32.8257 181.509 33.5126C182.05 34.1995 182.737 34.7823 183.528 35.261C184.34 35.719 185.297 36.052 186.401 36.2394C187.504 36.4267 188.69 36.51 190.002 36.51H190.147C191.022 36.51 191.875 36.4683 192.728 36.3851C193.603 36.3018 194.685 36.1353 195.976 35.8855C196.392 33.3252 196.662 31.7224 196.808 31.0564C195.434 31.4727 194.269 31.7641 193.332 31.9306C192.395 32.0971 191.563 32.1804 190.813 32.1804C189.585 32.1804 188.545 31.889 187.67 31.327C186.817 30.7649 186.38 29.8907 186.38 28.6834C186.38 28.5377 186.38 28.3712 186.38 28.2047H198.078C198.224 27.4137 198.286 26.7268 198.286 26.1023V26.0191C198.286 24.9783 198.12 24 197.787 23.0841L197.828 23.0425ZM192.062 25.6028H186.546C186.63 25.1656 186.692 24.8118 186.775 24.562C186.858 24.3122 186.983 24.0624 187.15 23.7918C187.316 23.5212 187.525 23.2923 187.774 23.0841C188.024 22.876 188.295 22.7302 188.607 22.6262C188.919 22.5221 189.231 22.4597 189.564 22.4597C190.043 22.4597 190.48 22.5637 190.855 22.7511C191.23 22.9384 191.542 23.2506 191.729 23.6461C191.937 24.0624 192.041 24.5412 192.041 25.124C192.041 25.2489 192.041 25.4154 192.041 25.6028H192.062Z" fill="white"/>
</g>
<defs>
<linearGradient id="paint0_linear_7_7144" x1="0.66608" y1="7.66005" x2="61.6756" y2="44.3157" gradientUnits="userSpaceOnUse">
<stop stop-color="#F7C800"/>
<stop offset="0.14" stop-color="#F5B300"/>
<stop offset="0.31" stop-color="#F19B0D"/>
<stop offset="1" stop-color="#E61F1F"/>
</linearGradient>
<clipPath id="clip0_7_7144">
<rect width="198.349" height="48" fill="white"/>
</clipPath>
</defs>
</svg>