<svg width="50" height="54" viewBox="0 0 50 54" fill="none" xmlns="http://www.w3.org/2000/svg">
<path fill-rule="evenodd" clip-rule="evenodd" d="M27.1288 26.2501L23.4091 22.5304L24.4698 21.4697L29.4698 26.4697L30.0001 27.0001L29.4698 27.5304L24.4698 32.5304L23.4091 31.4697L27.1288 27.7501H13.9395V26.2501H27.1288Z" fill="#E85A1C"/>
<path fill-rule="evenodd" clip-rule="evenodd" d="M48.4534 27C48.4534 41.3594 36.8128 53 22.4534 53C14.1281 53 6.71669 49.0871 1.95798 43H0.702583C5.61851 49.6716 13.5305 54 22.4534 54C37.365 54 49.4534 41.9117 49.4534 27C49.4534 12.0883 37.365 0 22.4534 0C13.0921 0 4.84357 4.76409 0 12H1.21399C5.92269 5.34482 13.6806 1 22.4534 1C36.8128 1 48.4534 12.6406 48.4534 27Z" fill="#E85A1C"/>
</svg>
